HIERARCHY
ROOT pelvis
{
  OFFSET 0 100 0
  CHANNELS 6 Xposition Yposition Zposition Zrotation Xrotation Yrotation
  JOINT pelvis_right_femur
  {
    OFFSET -10.78128 -3.44521 -0.5502486
    CHANNELS 3 Zrotation Xrotation Yrotation
    JOINT right_femur_tibia
    {
      OFFSET -0.8047443 -44.0398 -0.1307829
      CHANNELS 3 Zrotation Xrotation Yrotation
      JOINT right_tibia_foot
      {
        OFFSET 3.006224 -47.83518 -5
        CHANNELS 3 Zrotation Xrotation Yrotation
        End Site
        {
          OFFSET 0 -5 15
        }
      }
    }
  }
  JOINT pelvis_left_femur
  {
    OFFSET 10.78128 -3.44521 -0.5502486
    CHANNELS 3 Zrotation Xrotation Yrotation
    JOINT left_femur_tibia
    {
      OFFSET 0.8047443 -44.0398 -0.1307829
      CHANNELS 3 Zrotation Xrotation Yrotation
      JOINT left_tibia_foot
      {
        OFFSET -4.370144 -48.10324 -4.275266
        CHANNELS 3 Zrotation Xrotation Yrotation
        End Site
        {
          OFFSET 0 -5 15
        }
      }
    }
  }
  JOINT pelvis_spine1
  {
    OFFSET 0 6.468898 -3.129235
    CHANNELS 3 Zrotation Xrotation Yrotation
    JOINT spine1
    {
      OFFSET 0 23.15396 4.99043
      CHANNELS 3 Zrotation Xrotation Yrotation
      JOINT spine2
      {
        OFFSET 0 20.79997 -5.064912
        CHANNELS 3 Zrotation Xrotation Yrotation
        JOINT neck
        {
          OFFSET 0 14.38658 9.616178
          CHANNELS 3 Zrotation Xrotation Yrotation
          End Site
          {
            OFFSET 0 20 0
          }
        }
      }
      JOINT right_manubrium
      {
        OFFSET -5.722621 16.35077 3.967754
        CHANNELS 3 Zrotation Xrotation Yrotation
        JOINT right_clavicle
        {
          OFFSET -13.16364 1.694482 -4.693211
          CHANNELS 3 Zrotation Xrotation Yrotation
          JOINT right_humerus
          {
            OFFSET -28.5034 -0.3100689 -2.792744
            CHANNELS 3 Zrotation Xrotation Yrotation
            JOINT right_radius
            {
              OFFSET -25.15693 0.02248979 -1.271978
              CHANNELS 3 Zrotation Xrotation Yrotation
              End Site
              {
                OFFSET -15 0 0
              }
            }
          }
        }
      }
      JOINT left_manubrium
      {
        OFFSET 5.722621 16.35077 3.967754
        CHANNELS 3 Zrotation Xrotation Yrotation
        JOINT left_clavicle
        {
          OFFSET 13.16364 1.694482 -4.693211
          CHANNELS 3 Zrotation Xrotation Yrotation
          JOINT left_humerus
          {
            OFFSET 29.39168 -1.063119 -2.237045
            CHANNELS 3 Zrotation Xrotation Yrotation
            JOINT left_radius
            {
              OFFSET 24.59957 -0.9528479 0.9047498
              CHANNELS 3 Zrotation Xrotation Yrotation
              End Site
              {
                OFFSET 15 -0 -0
              }
            }
          }
        }
      }
    }
  }
}
MOTION
Frames: 23
Frame Time: 0.0416666666667
0 103.5113 0 -0.3060933 0.1500976 -0.2026828 3.788169 -15.2046 8.545904 -0 37.57899 -0 -6.607147 -16.65219 -3.319195 -5.246534 8.003232 -19.80119 -0 6.978258 -0 5.703546 -18.98739 24.22008 -3.12242 -5.540971 4.340428 3.232963 9.549898 -9.811582 0.4389549 21.43265 6.958732 2.468677 -24.89227 8.89595 6.800724 -19.40107 12.59237 84.37618 32.7823 -18.35415 -0 0 17.55273 -10.20053 10.57621 4.145295 8.164435 -22.26958 2.552264 -93.71728 18.28002 21.01575 0 0 -7.446792 13.55977 20.66436 -4.3418
0.2267307 104.1312 1.820422 -0.4747187 0.146265 -0.3554568 4.063344 -16.82731 8.015752 -0 36.02746 -0 -6.769593 -15.29112 -3.1736 -5.164617 8.54966 -19.42091 -0 7.04492 -0 5.047848 -19.75992 23.72012 -2.972784 -5.099026 4.299298 3.239723 9.639758 -9.799289 0.4542178 21.26758 7.128347 2.581302 -25.17751 9.013831 6.354267 -19.45838 12.48631 84.93006 32.52413 -18.75959 -0 0 17.15896 -10.32419 10.39046 4.06787 8.24198 -22.58604 2.247481 -93.13152 18.6002 20.39875 0 0 -9.232115 13.23346 19.91953 -3.824445
0.4980102 103.9159 5.684974 -1.80941 1.354206 -0.04828823 6.235893 -30.46628 3.716077 -0 19.264 -0 -6.770302 -6.664219 -1.544975 -4.691165 11.87558 -15.98116 -0 8.799888 -0 4.42009 -21.86457 20.10865 -2.083136 -1.652612 3.471419 3.973788 10.13322 -9.337531 0.9761071 20.10131 7.573293 3.15013 -26.8412 9.831318 3.642226 -18.86855 12.05343 87.37637 30.45592 -21.06701 -0 0 12.66842 -11.88361 9.437509 5.191248 9.116153 -23.70445 0.2319383 -88.55255 16.44086 14.44517 0 0 -19.29283 18.16173 13.94903 -9.275185
0.7884582 103.733 9.373198 -1.565238 1.950549 0.1728528 6.297961 -30.18237 4.444816 -0 19.69095 -0 -6.244068 -8.156411 -1.366503 -4.978412 11.41945 -16.38501 -0 8.869688 -0 6.993277 -20.76692 21.45451 -2.553571 -2.029502 3.788865 4.404828 10.38011 -9.747744 0.8330893 19.9598 7.506687 2.946577 -27.28036 9.952132 4.191313 -19.15417 12.39695 87.14912 32.61753 -21.1865 -0 0 12.73088 -10.90826 9.474861 4.62669 8.784227 -23.52034 0.5558588 -87.98797 14.83484 14.25953 0 0 -19.56391 20.43669 12.84048 -12.40279
1.13596 103.6153 13.005 -1.227785 1.952852 0.3005153 5.949202 -29.19614 4.451725 -0 20.42491 -0 -5.740857 -9.254467 -0.74711 -5.195496 10.38916 -16.0925 -0 9.80482 -0 10.61677 -18.36334 22.65469 -3.077914 -2.065332 3.942839 4.953287 10.99921 -10.22808 0.5121915 20.09181 7.452924 2.587193 -27.47993 9.990512 4.475605 -19.54647 13.17389 87.4382 34.85781 -21.23511 -0 0 11.92948 -10.46519 9.400836 4.256802 8.078393 -23.32847 0.4064865 -86.62209 11.4964 13.33975 0 0 -20.11294 24.67862 10.5936 -18.51195
1.529831 103.487 16.68293 -1.03669 0.9527283 0.3461924 5.024418 -27.26467 2.901527 -0 21.02186 -0 -5.613941 -9.615709 0.1970613 -4.940239 8.860567 -14.90607 -0 11.40314 -0 12.26278 -16.16662 22.17141 -3.260331 -1.823273 3.711727 5.290388 11.70145 -10.6044 0.03525536 20.62 7.49429 2.292117 -26.92901 9.688219 4.425601 -19.73039 14.16037 87.70409 34.95833 -21.11806 -0 0 10.78388 -11.62642 9.613252 4.414633 7.60826 -23.52121 -0.1439367 -85.47039 8.034605 12.17943 0 0 -19.77905 28.65827 9.07505 -24.74033
1.932053 103.3282 20.65065 -1.127712 -0.8656497 0.3385467 3.717563 -23.83409 -1.200562 -0 19.17066 -0 -5.677804 -9.225947 2.131647 -3.837052 6.125187 -12.22117 -0 15.48684 -0 10.58567 -14.17399 19.01731 -2.970955 -1.634622 3.042976 5.533409 12.6977 -11.08618 -0.7606028 21.56419 7.746824 2.311479 -25.36827 8.818921 4.428243 -19.41358 15.59023 87.20726 32.22164 -21.25137 -0 0 9.395942 -15.24459 10.88957 4.99304 7.90704 -24.60964 -1.018506 -85.01208 4.369949 10.59337 0 0 -17.63823 33.38113 8.672827 -32.74316
2.264354 103.2859 24.9016 -1.257633 -3.142633 0.2659264 2.533707 -18.38595 -7.503194 -0 15.10587 -0 -6.111273 -7.778542 5.206986 -2.32614 2.017472 -9.082945 -0 23.48887 -0 5.845336 -11.39371 13.4925 -2.094268 -2.261034 2.191875 5.003741 13.97993 -10.64455 -1.435492 23.20447 8.158884 3.432674 -22.19505 7.116223 5.625969 -17.94777 16.82465 84.41005 25.37594 -21.45771 -0 0 8.349621 -21.79989 14.21618 7.677913 8.973358 -26.25804 -3.363419 -87.09972 5.2858 10.19806 0 0 -12.45343 36.2885 12.74355 -36.43171
2.356132 103.7043 29.56184 -1.610809 -4.816968 0.002768312 3.080865 -12.74628 -14.15471 -0 7.879806 -0 -8.220023 -3.446734 7.956526 -1.157201 -1.684384 -6.585232 -0 37.49559 -0 -0.9674828 -8.018859 7.626175 -0.4995267 -4.60265 1.736568 3.313139 15.36533 -8.589502 -1.109647 25.01372 8.384643 6.055476 -18.46991 4.855213 7.72061 -15.01391 16.3133 79.9944 13.09144 -22.85243 -0 0 7.846173 -31.3765 19.15542 14.34772 11.0039 -28.52322 -7.028271 -93.8305 13.78397 13.01894 0 0 -4.039844 32.64618 23.57062 -27.57435
2.114069 104.6938 34.83658 -1.868562 -6.218257 -0.5991921 5.379012 -10.2461 -14.19522 -0 3.842629 -0 -11.25338 1.785615 6.204294 -1.223858 -0.7458712 -5.67024 -0 49.34909 -0 -3.127055 -6.862577 8.136789 0.672884 -6.274439 2.296225 1.995481 16.23636 -7.311895 0.303099 25.4531 7.221211 6.555917 -17.42214 4.219589 5.886835 -14.62656 14.55085 81.77724 6.198036 -24.03162 -0 0 7.289743 -34.53669 20.01718 17.04131 10.85819 -29.67331 -9.05853 -97.628 19.00354 16.12074 0 0 -3.099978 23.60246 28.5379 -13.55251
1.724314 105.9479 40.50363 -1.744286 -7.735537 -1.290474 7.120246 -8.458138 -8.806425 -0 5.130716 -0 -11.69767 3.005847 2.388124 -1.274824 0.6654648 -5.217548 -0 51.71059 -0 -1.67803 -7.217688 12.51164 0.9966968 -5.151159 3.319923 1.851117 16.52631 -8.052242 1.024005 24.45312 5.718891 4.277266 -18.60628 5.263703 1.010479 -17.88883 14.01693 88.6968 10.33317 -23.41604 -0 0 8.012056 -29.11369 16.92324 12.05299 8.316806 -28.77363 -8.524447 -93.39829 15.78289 16.22434 0 0 -10.45226 20.91528 23.83317 -12.38135
1.298363 107.3162 46.18443 -1.692502 -8.633171 -2.011581 7.899871 -5.518347 -5.308376 -0 6.411037 -0 -11.46879 1.956721 0.385846 -0.8467825 -1.029437 -4.988417 -0 51.76347 -0 -0.8123844 -6.452739 14.962 1.16325 -4.120536 4.15784 1.687364 16.73844 -8.294732 1.269374 23.66315 4.907743 2.900958 -19.45042 5.841616 -1.534688 -20.36819 13.8519 92.18791 13.45238 -22.51434 -0 0 9.822315 -25.98716 15.13102 9.612759 6.70609 -27.67492 -8.018938 -91.35984 13.68192 17.68251 0 0 -13.41389 19.52724 20.5208 -12.18552
0.8583792 108.7046 51.66387 -1.772932 -9.47073 -2.87371 8.323562 -2.104734 -3.871009 -0 7.121832 -0 -11.81566 0.8928376 -0.5677834 -0.162008 -4.211382 -4.859124 -0 52.58323 -0 0.2697137 -4.443156 15.70895 1.425436 -4.08457 4.804508 1.192702 17.39067 -7.735387 1.68462 23.30252 4.13182 2.475034 -19.19789 5.63218 -2.206459 -21.84993 13.71453 92.66511 12.87511 -20.98276 -0 0 12.03709 -26.09205 15.57252 10.68096 5.610099 -27.11918 -8.764422 -92.13279 13.87399 20.55424 0 0 -12.71962 16.75014 20.39488 -8.120314
0.4357281 109.9876 56.93534 -1.877094 -10.05463 -3.813952 8.500927 1.054766 -2.58365 -0 7.638261 -0 -11.84703 -0.6526848 -1.300395 0.5969133 -7.353082 -4.664587 -0 50.91094 -0 1.17293 -2.908537 16.26409 1.587353 -3.922808 5.380842 0.7935358 17.84447 -7.263988 1.939433 22.85099 3.47547 2.006816 -19.0264 5.4492 -2.71358 -23.40998 13.65404 92.88382 12.79965 -19.31645 -0 0 14.50198 -25.98925 15.97285 11.58188 4.673011 -26.49566 -9.238415 -92.67471 13.78996 23.24904 0 0 -12.19487 14.49282 19.98304 -4.975718
0.04950752 111.0248 62.07452 -2.003981 -10.38188 -4.772402 8.495864 4.019772 -1.395544 -0 7.817552 -0 -11.52317 -2.612573 -1.883782 1.425735 -10.17251 -4.330586 -0 46.65116 -0 1.600832 -2.143539 16.83899 1.64122 -3.530143 5.865776 0.5688215 17.93778 -6.985738 2.001917 22.34548 2.942638 1.393252 -19.12287 5.378653 -3.300967 -25.06384 13.60406 93.10381 13.51404 -17.65502 -0 0 17.03946 -25.40464 15.98547 11.8717 3.967293 -25.70053 -9.162469 -92.72942 13.31402 25.47356 0 0 -11.88679 13.03299 19.09097 -3.442468
-0.282439 111.8192 67.09524 -2.215752 -10.53164 -5.781895 8.477497 6.554729 -0.6551287 -0 7.936835 -0 -11.31734 -4.462443 -2.222797 2.261148 -12.70471 -4.000548 -0 42.22877 -0 2.211025 -1.225422 16.91781 1.759411 -3.485073 6.258207 0.3235103 18.13057 -6.617627 2.089594 21.86251 2.42177 0.9859529 -18.96215 5.134063 -3.363555 -26.48079 13.59984 92.68604 13.44169 -15.95275 -0 0 19.54035 -25.48088 16.59721 12.89542 3.367783 -25.16109 -9.376597 -93.29067 13.17676 27.80858 0 0 -11.20889 11.33868 18.86128 -1.156043
-0.5561628 112.4084 72.0345 -2.480091 -10.48641 -6.832838 8.454842 8.51563 -0.2066402 -0 8.068699 -0 -11.1247 -6.130528 -2.361552 3.016235 -14.73547 -3.703995 -0 37.97082 -0 2.86053 -0.349991 16.68352 1.898221 -3.644757 6.558521 0.12959 18.35394 -6.287809 2.154069 21.3967 1.977908 0.726099 -18.70304 4.831058 -3.047081 -27.65638 13.67691 91.93862 13.09667 -14.42364 -0 0 21.78911 -25.84705 17.5028 14.14387 2.900495 -24.83256 -9.666001 -94.00646 13.10862 29.90727 0 0 -10.46668 9.833057 18.92843 1.01459
-0.7921509 112.8007 76.97576 -2.74042 -10.29059 -7.87152 8.38413 10.02943 0.06141948 -0 8.164512 -0 -10.80286 -7.587462 -2.382467 3.633934 -16.14735 -3.4386 -0 33.63274 -0 3.139017 0.02064341 16.49411 1.960534 -3.725839 6.754026 0.09170233 18.37252 -6.131013 2.132912 21.00812 1.668923 0.4656789 -18.65216 4.63998 -2.746702 -28.61707 13.76239 91.25642 13.10646 -13.21071 -0 0 23.58023 -25.98847 18.08998 14.89151 2.659968 -24.49113 -9.599653 -94.41989 12.86594 31.33665 0 0 -9.735622 9.028047 18.82472 1.904305
-0.9994855 113.0299 81.95296 -2.992431 -9.995302 -8.87791 8.29913 11.17324 0.1531622 -0 8.352685 -0 -10.46104 -8.811344 -2.286282 4.135557 -17.19067 -3.249261 -0 29.73816 -0 3.314411 0.247257 16.21813 1.990285 -3.871227 6.881307 0.1267162 18.36524 -6.0431 2.091893 20.67459 1.440029 0.2825804 -18.63913 4.472774 -2.288728 -29.37162 13.89447 90.46498 13.08458 -12.20005 -0 0 25.06227 -26.19997 18.68368 15.56206 2.548668 -24.24215 -9.454265 -94.81729 12.60655 32.41783 0 0 -8.885631 8.539243 18.81098 2.312005
-1.177907 113.1459 86.96473 -3.230977 -9.61205 -9.84341 8.218699 11.95137 0.09383071 -0 8.676012 -0 -10.14295 -9.828782 -2.060517 4.543082 -18.02364 -3.150613 -0 26.56011 -0 3.559959 0.5484544 15.76986 2.011257 -4.160952 6.963202 0.1890474 18.45088 -5.977449 2.05583 20.36789 1.269891 0.2258869 -18.55701 4.27831 -1.537412 -29.93417 14.12728 89.46086 12.8747 -11.34281 -0 0 26.33334 -26.63632 19.49332 16.38167 2.509979 -24.17371 -9.391088 -95.33417 12.38063 33.31647 0 0 -7.909639 8.202138 19.0161 2.602995
-1.337318 113.1789 92.02175 -3.435329 -9.173427 -10.74496 8.119502 12.42643 -0.07082087 -0 9.110593 -0 -9.811678 -10.64576 -1.750589 4.844282 -18.61806 -3.134869 -0 23.91042 -0 3.725177 0.7392215 15.29142 1.987474 -4.479766 6.991198 0.3091597 18.52894 -5.973658 2.003436 20.11477 1.174874 0.2280572 -18.52289 4.121334 -0.6818063 -30.32072 14.4083 88.40665 12.69118 -10.67049 -0 0 27.33269 -27.0995 20.26879 17.09181 2.570175 -24.18711 -9.25187 -95.79788 12.11968 33.89369 0 0 -6.849318 8.165572 19.25897 2.425794
-1.485434 113.1525 97.13083 -3.599365 -8.703198 -11.56426 7.994963 12.66117 -0.2974081 -0 9.679284 -0 -9.473794 -11.30472 -1.389556 5.052538 -19.01924 -3.192121 -0 21.68315 -0 3.820797 0.8147956 14.81357 1.91903 -4.805755 6.973816 0.4769903 18.58675 -6.023416 1.936649 19.90732 1.142674 0.2625964 -18.54831 4.008742 0.2190163 -30.56746 14.71198 87.34511 12.55852 -10.1466 -0 0 28.10295 -27.54929 20.97614 17.68407 2.70338 -24.2493 -9.02834 -96.18781 11.82592 34.20108 0 0 -5.744696 8.368014 19.48977 1.870576
-1.621104 113.0926 102.2842 -3.725693 -8.201755 -12.29229 7.853228 12.67937 -0.5607413 -0 10.38721 -0 -9.147246 -11.86543 -0.9769749 5.196334 -19.31142 -3.309376 -0 19.8794 -0 3.9433 0.8807724 14.29179 1.82429 -5.177543 6.925181 0.6667204 18.67444 -6.101555 1.863311 19.72002 1.157306 0.3440603 -18.57726 3.911362 1.22677 -30.70272 15.05733 86.22294 12.41199 -9.724475 -0 0 28.72537 -28.05655 21.72613 18.28696 2.873537 -24.39413 -8.797981 -96.57139 11.52563 34.35553 0 0 -4.621325 8.698875 19.75629 1.164009
